<?xml version="1.0" encoding="UTF-8"?>
<svg width="1200pt" height="1200pt" version="1.1" viewBox="0 0 1200 1200" xmlns="http://www.w3.org/2000/svg">
 <path d="m509.53 431.34 84.383-43.359c3.8281-1.9531 8.3594-1.9531 12.188 0l84.383 43.359-0.007813-204.14h-180.95z"/>
 <path d="m720.11 754.79h-240.21v131.25h240.21zm-32.574 101.61h-175.06c-7.3633 0-13.332-5.9648-13.332-13.332 0-7.3711 5.9688-13.332 13.332-13.332h175.06c7.3633 0 13.332 5.9609 13.332 13.332 0 7.3672-5.9688 13.332-13.332 13.332zm0-45.301h-175.06c-7.3633 0-13.332-5.9648-13.332-13.332 0-7.3711 5.9688-13.332 13.332-13.332h175.06c7.3633 0 13.332 5.9648 13.332 13.332 0 7.3672-5.9688 13.332-13.332 13.332z"/>
 <path d="m227.19 948.11c0 13.605 11.082 24.688 24.695 24.688h696.22c13.613 0 24.691-11.082 24.691-24.688l0.003907-696.23c0-13.605-11.078-24.688-24.691-24.688h-230.97v225.98c0 4.6484-2.4219 8.957-6.3867 11.379-2.1289 1.3047-4.5312 1.9531-6.9453 1.9531-2.0898 0-4.1797-0.49609-6.0938-1.4727l-97.715-50.203-97.715 50.207c-4.1289 2.125-9.0703 1.9531-13.039-0.48047-3.9648-2.4219-6.3867-6.7305-6.3867-11.379v-225.98h-230.97c-13.613 0-24.695 11.082-24.695 24.688zm226.04-206.66c0-7.3711 5.9688-13.332 13.332-13.332h266.88c7.3633 0 13.332 5.9609 13.332 13.332v157.91c0 7.3711-5.9688 13.332-13.332 13.332h-266.88c-7.3633 0-13.332-5.9609-13.332-13.332z"/>
</svg>
