<svg xmlns="http://www.w3.org/2000/svg" xmlns:xlink="http://www.w3.org/1999/xlink" width="1024" zoomAndPan="magnify" viewBox="0 0 768 767.999994" height="1024" preserveAspectRatio="xMidYMid meet" version="1.0"><rect x="-76.8" width="921.6" fill="#ffffff" y="-76.799999" height="921.599993" fill-opacity="1"/><rect x="-76.8" width="921.6" fill="#ffffff" y="-76.799999" height="921.599993" fill-opacity="1"/><path stroke-linecap="butt" transform="matrix(1.586086, 0, 0, -1.586086, -418.147944, 1216.39028)" fill-opacity="1" fill="#f1d09f" fill-rule="nonzero" stroke-linejoin="miter" d="M 352.158848 474.669643 L 365.369435 474.901149 C 365.849685 474.911 366.290531 474.620387 366.460466 474.16969 C 369.989692 464.919324 373.770126 454.51882 377.819008 442.97064 C 380.129137 436.360421 382.520539 431.021019 385.010454 426.949971 C 401.260164 400.358864 430.649039 386.589217 461.749577 386.559663 C 507.119715 386.510406 551.081118 386.500555 593.62886 386.530109 C 594.210086 386.530109 594.500699 386.820722 594.500699 387.389635 L 594.399724 450.859064 C 594.399724 451.149677 594.249491 451.299909 593.958878 451.299909 C 553.349378 451.208785 512.6192 451.198933 471.770806 451.280207 C 459.710359 451.299909 448.750793 450.740848 440.559442 460.909847 C 438.608885 463.340654 436.660792 467.520066 434.729938 473.450546 C 431.690814 482.779722 428.479292 492.190171 425.100298 501.669579 C 424.999322 501.930639 425.070744 502.231103 425.270232 502.420741 C 436.641089 513.429562 444.879235 526.339684 449.979742 541.151106 C 463.559752 580.600616 449.730997 627.800632 416.620796 652.140718 C 399.871132 664.449911 380.680809 670.661152 359.039978 670.759665 C 338.568987 670.85079 315.580991 670.85079 290.080914 670.739963 C 289.960236 670.739963 289.869112 670.648838 289.869112 670.530623 L 289.888814 608.260589 C 289.888814 607.878851 290.080914 607.689214 290.470041 607.689214 C 310.418912 607.708916 330.380098 607.718767 350.351136 607.718767 C 355.991002 607.708916 361.830357 607.891165 366.800335 606.580943 C 378.809063 603.42114 386.980712 595.749444 391.320208 583.56093 C 395.669554 571.360101 391.699483 556.560994 382.390009 547.451009 C 375.799493 541.010725 367.718968 537.769649 358.150898 537.730244 C 335.399333 537.648971 312.280807 537.609565 288.800246 537.609565 C 288.581055 537.609565 288.41112 537.439631 288.41112 537.220439 L 288.509633 387.059616 C 288.509633 386.778854 288.741138 386.549812 289.019437 386.549812 L 351.250066 386.480853 C 351.700763 386.480853 351.919954 386.700044 351.919954 387.140889 L 351.850995 474.359327 C 351.850995 474.529262 351.988914 474.669643 352.158848 474.669643 " stroke="#8d8d8d" stroke-width="0.05" stroke-opacity="1" stroke-miterlimit="10"/><path stroke-linecap="butt" transform="matrix(1.586086, 0, 0, -1.586086, -418.147944, 1216.216136)" fill-opacity="1" fill="#f1d09f" fill-rule="nonzero" stroke-linejoin="miter" d="M 697.729954 506.748954 C 722.579845 533.970544 729.549636 573.191012 717.178873 607.269103 C 705.679949 638.980421 679.970533 662.360006 646.579569 668.699314 C 639.031014 670.130215 630.879068 670.819805 622.118804 670.770549 C 603.509708 670.649871 584.639553 670.649871 565.510802 670.770549 C 565.321164 670.770549 565.161081 670.610465 565.161081 670.410977 L 565.23004 607.92914 C 565.23004 607.709948 565.409826 607.530162 565.638869 607.530162 C 583.410604 607.559716 602.199486 607.599121 622.01044 607.631138 C 626.640548 607.640989 630.499793 607.330674 633.600488 606.710042 C 659.100565 601.57998 669.380391 570.580418 653.170085 550.638935 C 646.079616 541.93039 636.770142 537.571193 625.219499 537.571193 C 609.349063 537.571193 594.059854 537.549027 579.349408 537.509622 C 564.661128 537.470217 552.519407 542.309665 544.840322 555.360168 C 540.909656 562.049197 539.968857 569.188923 539.959006 576.939429 C 539.949155 608.320729 539.949155 639.500077 539.968857 670.470084 C 539.968857 670.600614 539.860493 670.708978 539.729963 670.708978 L 476.280237 670.699127 C 476.090599 670.699127 475.940367 670.548895 475.940367 670.359257 C 476.070897 641.300401 476.10045 611.290894 476.009326 580.340589 C 475.999475 573.011225 476.339344 566.401007 477.028935 560.509932 C 480.4695 531.310695 494.849927 505.620981 519.199865 489.829355 C 533.870906 480.320393 550.130468 475.31101 567.958848 474.801205 C 580.270504 474.449021 596.89949 474.429319 617.850731 474.739635 C 624.300866 474.830759 629.290547 474.399765 632.819773 473.449115 C 648.860144 469.119471 659.159672 453.771154 659.260648 437.410616 C 659.369012 420.289066 659.401029 403.499997 659.34931 387.031095 C 659.34931 386.701076 659.62022 386.430166 659.96009 386.430166 L 722.289232 386.400612 C 722.909864 386.400612 723.220179 386.710927 723.210328 387.338947 C 723.138906 400.719469 723.15122 414.99892 723.220179 430.179766 C 723.350709 458.090946 715.299738 483.140326 697.680698 505.219541 C 697.259555 505.749048 697.279258 506.258852 697.729954 506.748954 " stroke="#8d8d8d" stroke-width="0.05" stroke-opacity="1" stroke-miterlimit="10"/></svg>